<svg data-v-423bf9ae="" xmlns="http://www.w3.org/2000/svg" viewBox="0 0 1806.8484100082621 193" class="fontAboveSlogan"><!----><!----><!----><g data-v-423bf9ae="" id="0b72f21e-a82d-4763-b6f3-5260dc5ca195" fill="black" transform="matrix(11.487307727982156,0,0,11.487307727982156,596.7770695218508,-2.882123471834582)"><path d="M5.04 4.65L5.04 4.65C5.60 4.65 5.95 4.35 6.12 3.96C6.24 3.67 6.24 3.32 6.12 3.02C5.95 2.63 5.60 2.34 5.04 2.34L3.28 2.34C3.18 2.34 3.11 2.41 3.11 2.49C3.11 2.59 3.18 2.66 3.28 2.66L5.04 2.66C5.45 2.66 5.71 2.88 5.82 3.15C5.91 3.37 5.91 3.63 5.82 3.84C5.71 4.13 5.43 4.34 5.04 4.34L4.47 4.34C4.38 4.34 4.31 4.41 4.31 4.49C4.31 4.58 4.38 4.65 4.47 4.65ZM1.44 10.50L1.44 10.50L1.44 0.66L5.21 0.66C6.52 0.66 7.36 1.39 7.74 2.34C8.02 3.07 8.02 3.92 7.74 4.65C7.36 5.60 6.52 6.33 5.21 6.33L3.28 6.33C3.18 6.33 3.11 6.40 3.11 6.48L3.11 10.50C3.11 10.58 3.18 10.65 3.28 10.65C3.36 10.65 3.43 10.58 3.43 10.50L3.43 6.66L5.21 6.66C6.68 6.66 7.63 5.82 8.05 4.79C8.36 3.96 8.36 3.02 8.05 2.21C7.63 1.16 6.68 0.34 5.21 0.34L1.27 0.34C1.19 0.34 1.12 0.42 1.12 0.50L1.12 10.50C1.12 10.58 1.19 10.65 1.27 10.65C1.36 10.65 1.44 10.58 1.44 10.50ZM14.28 6.33L14.28 6.33L12.04 6.33C11.94 6.33 11.87 6.40 11.87 6.50L11.87 8.50C11.87 8.58 11.94 8.65 12.04 8.65L15.22 8.65C15.30 8.65 15.37 8.58 15.37 8.50C15.37 8.40 15.30 8.33 15.22 8.33L12.19 8.33L12.19 6.65L14.28 6.65C14.38 6.65 14.45 6.58 14.45 6.50C14.45 6.40 14.38 6.33 14.28 6.33ZM15.22 2.34L15.22 2.34L12.04 2.34C11.94 2.34 11.87 2.41 11.87 2.49L11.87 4.49C11.87 4.58 11.94 4.66 12.04 4.66L14.28 4.66C14.38 4.66 14.45 4.58 14.45 4.49C14.45 4.41 14.38 4.33 14.28 4.33L12.19 4.33L12.19 2.66L15.22 2.66C15.30 2.66 15.37 2.59 15.37 2.49C15.37 2.41 15.30 2.34 15.22 2.34ZM15.22 10.33L15.22 10.33L10.19 10.33L10.19 0.66L15.22 0.66C15.30 0.66 15.37 0.59 15.37 0.49C15.37 0.41 15.30 0.34 15.22 0.34L10.04 0.34C9.94 0.34 9.87 0.41 9.87 0.49L9.87 10.50C9.87 10.58 9.94 10.65 10.04 10.65L15.22 10.65C15.30 10.65 15.37 10.58 15.37 10.50C15.37 10.40 15.30 10.33 15.22 10.33ZM21.17 4.65L21.17 4.65C21.83 4.65 22.36 4.16 22.36 3.50C22.36 2.83 21.83 2.34 21.17 2.34L19.40 2.34C19.19 2.34 19.19 2.66 19.40 2.66L21.17 2.66C21.64 2.66 22.04 3.01 22.04 3.50C22.04 3.98 21.64 4.34 21.17 4.34L20.61 4.34C20.51 4.34 20.44 4.41 20.44 4.49C20.44 4.58 20.51 4.65 20.61 4.65ZM22.13 10.40L22.13 10.40L19.53 6.93C19.47 6.86 19.38 6.85 19.31 6.89C19.26 6.93 19.24 6.99 19.25 7.03L19.25 10.50C19.25 10.58 19.32 10.67 19.40 10.67C19.49 10.67 19.57 10.58 19.57 10.50L19.57 7.50L21.87 10.58C21.92 10.67 22.04 10.68 22.11 10.63C22.18 10.57 22.19 10.47 22.13 10.40ZM17.57 10.50L17.57 10.50L17.57 0.66L21.34 0.66C22.90 0.66 24.14 1.95 24.14 3.50C24.14 5.04 22.90 6.33 21.34 6.33C21.25 6.33 21.18 6.40 21.18 6.50C21.18 6.54 21.20 6.58 21.22 6.61L24.30 10.58C24.37 10.67 24.47 10.68 24.54 10.61C24.61 10.57 24.63 10.47 24.57 10.40L21.67 6.65C23.27 6.48 24.47 5.10 24.47 3.50C24.47 1.76 23.09 0.32 21.34 0.32L17.40 0.32C17.32 0.32 17.25 0.41 17.25 0.49L17.25 10.50C17.25 10.58 17.32 10.67 17.40 10.67C17.50 10.67 17.57 10.58 17.57 10.50ZM25.56 9.98L25.56 9.98C26.12 10.26 26.66 10.44 27.16 10.56C29.71 11.16 31.96 10.07 31.96 7.53C31.96 5.00 28.90 4.48 28.27 4.00C28.07 3.85 27.96 3.63 27.96 3.42C27.94 2.94 28.32 2.69 28.74 2.63C29.40 2.56 30.25 2.83 30.74 3.02C30.94 3.11 31.07 2.81 30.87 2.73C30.06 2.39 29.43 2.27 28.76 2.31C28.11 2.34 27.61 2.81 27.64 3.46C27.72 4.73 29.46 4.47 30.83 5.75C32.02 6.85 31.81 8.60 30.86 9.56C29.61 10.81 27.34 10.54 25.73 9.70C25.54 9.60 25.38 9.88 25.56 9.98ZM31.12 0.71L31.12 0.71C30.46 0.49 29.96 0.38 29.57 0.32C27.31 0.01 25.62 1.32 25.62 3.49C25.62 6.09 28.69 6.45 29.34 7C29.67 7.29 29.72 7.80 29.39 8.11C28.69 8.75 26.88 8.23 26.00 7.62C25.83 7.50 25.63 7.76 25.82 7.88C26.71 8.54 27.85 8.76 28.73 8.71C29.39 8.67 29.97 8.20 29.93 7.55C29.85 6.26 28.14 6.50 26.77 5.31C25.56 4.23 25.79 2.45 26.68 1.48C27.79 0.28 29.51 0.49 31.01 1.01C31.21 1.09 31.32 0.78 31.12 0.71ZM35.97 10.50L35.97 10.50L35.97 0.49C35.97 0.41 35.90 0.34 35.81 0.34C35.71 0.34 35.64 0.41 35.64 0.49L35.64 10.50C35.64 10.58 35.71 10.65 35.81 10.65C35.90 10.65 35.97 10.58 35.97 10.50ZM33.96 10.50L33.96 10.50L33.96 0.49C33.96 0.41 33.89 0.34 33.81 0.34C33.71 0.34 33.64 0.41 33.64 0.49L33.64 10.50C33.64 10.58 33.71 10.65 33.81 10.65C33.89 10.65 33.96 10.58 33.96 10.50ZM37.84 9.98L37.84 9.98C38.40 10.26 38.93 10.44 39.44 10.56C41.99 11.16 44.24 10.07 44.24 7.53C44.24 5.00 41.17 4.48 40.54 4.00C40.35 3.85 40.24 3.63 40.24 3.42C40.22 2.94 40.60 2.69 41.02 2.63C41.68 2.56 42.53 2.83 43.02 3.02C43.22 3.11 43.34 2.81 43.15 2.73C42.34 2.39 41.71 2.27 41.03 2.31C40.39 2.34 39.89 2.81 39.91 3.46C40.00 4.73 41.73 4.47 43.11 5.75C44.30 6.85 44.09 8.60 43.13 9.56C41.89 10.81 39.62 10.54 38.01 9.70C37.81 9.60 37.66 9.88 37.84 9.98ZM43.40 0.71L43.40 0.71C42.74 0.49 42.24 0.38 41.85 0.32C39.59 0.01 37.90 1.32 37.90 3.49C37.90 6.09 40.96 6.45 41.62 7C41.94 7.29 42.00 7.80 41.66 8.11C40.96 8.75 39.16 8.23 38.28 7.62C38.11 7.50 37.91 7.76 38.09 7.88C38.99 8.54 40.12 8.76 41.01 8.71C41.66 8.67 42.25 8.20 42.21 7.55C42.13 6.26 40.42 6.50 39.05 5.31C37.84 4.23 38.07 2.45 38.96 1.48C40.07 0.28 41.79 0.49 43.29 1.01C43.48 1.09 43.60 0.78 43.40 0.71ZM52.23 2.34L52.23 2.34L49.73 2.34C49.64 2.34 49.57 2.41 49.57 2.49L49.57 10.50C49.57 10.58 49.64 10.65 49.73 10.65C49.81 10.65 49.88 10.58 49.88 10.50L49.88 2.67L52.23 2.67C52.32 2.67 52.39 2.59 52.39 2.49C52.39 2.41 52.32 2.34 52.23 2.34ZM45.23 0.66L45.23 0.66L52.22 0.66C52.32 0.66 52.39 0.59 52.39 0.50C52.39 0.42 52.32 0.35 52.22 0.35L45.23 0.35C45.15 0.35 45.08 0.42 45.08 0.50C45.08 0.59 45.15 0.66 45.23 0.66ZM45.23 2.67L45.23 2.67L47.57 2.67L47.57 10.50C47.57 10.58 47.64 10.65 47.74 10.65C47.82 10.65 47.89 10.58 47.89 10.50L47.89 2.49C47.89 2.41 47.82 2.34 47.74 2.34L45.23 2.34C45.15 2.34 45.08 2.41 45.08 2.49C45.08 2.59 45.15 2.67 45.23 2.67Z"></path></g><!----><!----><g data-v-423bf9ae="" id="a198e13b-02a9-425d-a18d-f98e37498c85" fill="black" transform="matrix(6.060605710312484,0,0,6.060605710312484,-4.606080725394349,116.39393815017814)"><path d="M0.76 7.83L0.76 7.83L0.76 7.83Q0.76 6.62 1.16 5.68L1.16 5.68L1.16 5.68Q1.58 4.72 2.27 4.12L2.27 4.12L2.27 4.12Q2.96 3.51 3.82 3.19L3.82 3.19L3.82 3.19Q4.66 2.88 5.61 2.88L5.61 2.88L5.61 2.88Q6.87 2.88 7.92 3.40L7.92 3.40L7.92 3.40Q9.00 3.93 9.71 5.07L9.71 5.07L9.71 5.07Q10.41 6.17 10.42 7.75L10.42 7.75L10.42 7.75Q10.42 8.70 10.11 9.54L10.11 9.54L10.11 9.54Q9.80 10.38 9.20 11.10L9.20 11.10L9.20 11.10Q8.59 11.81 7.66 12.22L7.66 12.22L7.66 12.22Q6.69 12.63 5.50 12.64L5.50 12.64L5.50 12.64Q4.37 12.64 3.43 12.23L3.43 12.23L3.43 12.23Q2.50 11.83 1.93 11.14L1.93 11.14L1.93 11.14Q1.36 10.45 1.07 9.60L1.07 9.60L1.07 9.60Q0.76 8.72 0.76 7.83ZM2.02 7.38L2.02 7.38L2.02 7.38Q2.02 8.52 2.45 9.60L2.45 9.60L2.45 9.60Q2.85 10.64 3.78 11.33L3.78 11.33L3.78 11.33Q4.69 12.03 5.88 12.04L5.88 12.04L5.88 12.04Q7.25 12.04 8.19 11.01L8.19 11.01L8.19 11.01Q9.14 9.97 9.14 8.10L9.14 8.10L9.14 8.10Q9.14 5.99 7.98 4.72L7.98 4.72L7.98 4.72Q6.83 3.46 5.32 3.45L5.32 3.45L5.32 3.45Q4.80 3.45 4.26 3.65L4.26 3.65L4.26 3.65Q3.71 3.85 3.21 4.25L3.21 4.25L3.21 4.25Q2.66 4.68 2.34 5.48L2.34 5.48L2.34 5.48Q2.02 6.27 2.02 7.38ZM21.70 12.41L18.68 12.41L18.68 11.87L18.81 11.87L18.81 11.87Q19.40 11.87 19.52 11.77L19.52 11.77L19.52 11.77Q19.64 11.68 19.65 11.21L19.65 11.21L19.78 4.38L19.78 4.38Q19.78 4.35 19.79 4.28L19.79 4.28L19.79 4.28Q19.80 4.21 19.80 4.17L19.80 4.17L19.80 4.01L19.80 4.01Q19.80 3.76 19.72 3.71L19.72 3.71L19.72 3.71Q19.63 3.64 19.40 3.64L19.40 3.64L18.69 3.64L18.68 3.08L20.79 3.08L23.98 10.55L27.12 3.08L29.35 3.08L29.35 3.64L28.88 3.64L28.88 3.64Q28.43 3.64 28.31 3.71L28.31 3.71L28.31 3.71Q28.15 3.79 28.15 4.08L28.15 4.08L28.15 11.22L28.15 11.22Q28.15 11.68 28.26 11.77L28.26 11.77L28.26 11.77Q28.38 11.87 29.00 11.87L29.00 11.87L29.29 11.87L29.30 12.41L25.90 12.41L25.88 11.87L26.16 11.87L26.16 11.87Q26.78 11.87 26.89 11.77L26.89 11.77L26.89 11.77Q27.02 11.66 27.02 11.25L27.02 11.25L27.02 4.83L24.86 9.91L24.01 12.02L24.01 12.02Q23.87 12.37 23.83 12.44L23.83 12.44L23.83 12.44Q23.78 12.51 23.71 12.51L23.71 12.51L23.71 12.51Q23.62 12.51 23.17 11.52L23.17 11.52L20.36 5.01L20.30 11.39L20.30 11.39Q20.30 11.74 20.49 11.80L20.49 11.80L20.49 11.80Q20.73 11.87 21.70 11.87L21.70 11.87L21.70 12.41ZM46.61 12.41L46.59 11.87L46.76 11.87L46.76 11.87Q47.15 11.87 47.28 11.73L47.28 11.73L47.28 11.73Q47.41 11.57 47.74 10.83L47.74 10.83L48.65 8.82L49.23 7.53L49.23 7.53Q49.49 6.97 49.53 6.86L49.53 6.86L49.53 6.86Q49.60 6.70 49.65 6.60L49.65 6.60L49.65 6.60Q49.70 6.51 49.72 6.45L49.72 6.45L49.81 6.21L51.24 2.74L51.54 2.74L51.54 2.74Q52.39 4.98 54.58 10.25L54.58 10.25L54.58 10.25Q55.03 11.34 55.22 11.64L55.22 11.64L55.22 11.64Q55.36 11.87 55.79 11.87L55.79 11.87L56.01 11.87L55.99 12.41L52.80 12.41L52.81 11.87L53.23 11.87L53.23 11.87Q53.85 11.87 53.85 11.70L53.85 11.70L53.85 11.70Q53.85 11.63 53.71 11.27L53.71 11.27L52.67 8.72L49.42 8.72L48.32 11.18L48.32 11.18Q48.18 11.50 48.18 11.63L48.18 11.63L48.18 11.63Q48.18 11.79 48.28 11.83L48.28 11.83L48.28 11.83Q48.37 11.87 48.75 11.87L48.75 11.87L49.33 11.87L49.33 12.41L46.61 12.41ZM51.11 4.79L49.69 8.10L52.43 8.10L51.11 4.79ZM64.23 3.64L63.74 3.64L63.75 3.08L67.34 3.08L67.34 3.64L66.71 3.64L66.71 3.64Q66.33 3.64 66.22 3.72L66.22 3.72L66.22 3.72Q66.10 3.80 66.10 4.16L66.10 4.16L66.10 11.22L66.10 11.22Q66.10 11.57 66.19 11.67L66.19 11.67L66.19 11.67Q66.27 11.77 66.57 11.77L66.57 11.77L66.57 11.77Q69.44 11.74 70.10 11.63L70.10 11.63L70.10 11.63Q70.31 11.61 70.39 11.39L70.39 11.39L70.39 11.39Q70.47 11.17 70.67 10.05L70.67 10.05L71.16 10.08L70.70 12.41L63.94 12.41L63.92 11.87L64.31 11.87L64.31 11.87Q64.82 11.87 64.89 11.80L64.89 11.80L64.89 11.80Q64.97 11.72 64.98 11.33L64.98 11.33L64.98 4.09L64.98 4.09Q64.98 3.80 64.82 3.72L64.82 3.72L64.82 3.72Q64.67 3.64 64.23 3.64L64.23 3.64ZM79.39 3.64L78.89 3.64L78.91 3.08L82.50 3.08L82.50 3.64L81.86 3.64L81.86 3.64Q81.48 3.64 81.37 3.72L81.37 3.72L81.37 3.72Q81.26 3.80 81.26 4.16L81.26 4.16L81.26 11.22L81.26 11.22Q81.26 11.57 81.34 11.67L81.34 11.67L81.34 11.67Q81.43 11.77 81.72 11.77L81.72 11.77L81.72 11.77Q84.59 11.74 85.25 11.63L85.25 11.63L85.25 11.63Q85.46 11.61 85.54 11.39L85.54 11.39L85.54 11.39Q85.63 11.17 85.83 10.05L85.83 10.05L86.32 10.08L85.85 12.41L79.09 12.41L79.08 11.87L79.47 11.87L79.47 11.87Q79.97 11.87 80.04 11.80L80.04 11.80L80.04 11.80Q80.12 11.72 80.13 11.33L80.13 11.33L80.13 4.09L80.13 4.09Q80.13 3.80 79.97 3.72L79.97 3.72L79.97 3.72Q79.82 3.64 79.39 3.64L79.39 3.64ZM94.06 12.41L94.05 11.87L94.22 11.87L94.22 11.87Q94.61 11.87 94.74 11.73L94.74 11.73L94.74 11.73Q94.86 11.57 95.20 10.83L95.20 10.83L96.11 8.82L96.68 7.53L96.68 7.53Q96.95 6.97 96.99 6.86L96.99 6.86L96.99 6.86Q97.06 6.70 97.11 6.60L97.11 6.60L97.11 6.60Q97.16 6.51 97.17 6.45L97.17 6.45L97.27 6.21L98.70 2.74L98.99 2.74L98.99 2.74Q99.85 4.98 102.03 10.25L102.03 10.25L102.03 10.25Q102.48 11.34 102.68 11.64L102.68 11.64L102.68 11.64Q102.81 11.87 103.25 11.87L103.25 11.87L103.46 11.87L103.45 12.41L100.26 12.41L100.27 11.87L100.69 11.87L100.69 11.87Q101.30 11.87 101.30 11.70L101.30 11.70L101.30 11.70Q101.30 11.63 101.17 11.27L101.17 11.27L100.13 8.72L96.88 8.72L95.77 11.18L95.77 11.18Q95.63 11.50 95.63 11.63L95.63 11.63L95.63 11.63Q95.63 11.79 95.73 11.83L95.73 11.83L95.73 11.83Q95.83 11.87 96.21 11.87L96.21 11.87L96.78 11.87L96.78 12.41L94.06 12.41ZM98.56 4.79L97.15 8.10L99.89 8.10L98.56 4.79ZM121.16 3.64L120.76 3.64L120.79 3.08L123.89 3.08L123.89 3.08Q125.63 3.08 126.41 3.75L126.41 3.75L126.41 3.75Q127.18 4.42 127.18 5.37L127.18 5.37L127.18 5.37Q127.18 6.08 126.64 6.60L126.64 6.60L126.64 6.60Q126.08 7.14 125.38 7.35L125.38 7.35L125.38 7.35Q126.46 7.57 127.00 8.34L127.00 8.34L127.00 8.34Q127.52 9.08 127.51 10.01L127.51 10.01L127.51 10.01Q127.51 11.01 126.88 11.59L126.88 11.59L126.88 11.59Q126.28 12.13 125.33 12.28L125.33 12.28L125.33 12.28Q124.41 12.41 122.86 12.41L122.86 12.41L120.88 12.41L120.88 11.87L121.30 11.87L121.30 11.87Q121.66 11.87 121.77 11.80L121.77 11.80L121.77 11.80Q121.88 11.73 121.88 11.46L121.88 11.46L121.88 4.14L121.88 4.14Q121.88 3.81 121.73 3.72L121.73 3.72L121.73 3.72Q121.60 3.64 121.16 3.64L121.16 3.64ZM122.99 7.59L122.99 7.59L123.02 11.35L123.02 11.35Q123.02 11.63 123.19 11.71L123.19 11.71L123.19 11.71Q123.35 11.80 123.93 11.80L123.93 11.80L123.93 11.80Q126.18 11.80 126.18 9.91L126.18 9.91L126.18 9.91Q126.18 9.22 125.86 8.73L125.86 8.73L125.86 8.73Q125.55 8.24 125.02 8.02L125.02 8.02L125.02 8.02Q124.43 7.75 124.00 7.68L124.00 7.68L124.00 7.68Q123.52 7.59 122.99 7.59ZM123.02 4.01L123.02 7.19L124.39 7.19L124.39 7.19Q125.05 7.19 125.47 6.66L125.47 6.66L125.47 6.66Q125.87 6.15 125.88 5.54L125.88 5.54L125.88 5.54Q125.88 4.85 125.29 4.27L125.29 4.27L125.29 4.27Q124.71 3.69 123.44 3.69L123.44 3.69L123.44 3.69Q123.02 3.69 123.02 4.01L123.02 4.01ZM135.57 12.41L135.56 11.87L135.73 11.87L135.73 11.87Q136.12 11.87 136.25 11.73L136.25 11.73L136.25 11.73Q136.37 11.57 136.71 10.83L136.71 10.83L137.61 8.82L138.19 7.53L138.19 7.53Q138.46 6.97 138.50 6.86L138.50 6.86L138.50 6.86Q138.56 6.70 138.62 6.60L138.62 6.60L138.62 6.60Q138.67 6.51 138.68 6.45L138.68 6.45L138.78 6.21L140.21 2.74L140.50 2.74L140.50 2.74Q141.35 4.98 143.54 10.25L143.54 10.25L143.54 10.25Q143.99 11.34 144.18 11.64L144.18 11.64L144.18 11.64Q144.32 11.87 144.76 11.87L144.76 11.87L144.97 11.87L144.96 12.41L141.76 12.41L141.78 11.87L142.19 11.87L142.19 11.87Q142.81 11.87 142.81 11.70L142.81 11.70L142.81 11.70Q142.81 11.63 142.67 11.27L142.67 11.27L141.63 8.72L138.39 8.72L137.28 11.18L137.28 11.18Q137.14 11.50 137.14 11.63L137.14 11.63L137.14 11.63Q137.14 11.79 137.24 11.83L137.24 11.83L137.24 11.83Q137.33 11.87 137.72 11.87L137.72 11.87L138.29 11.87L138.29 12.41L135.57 12.41ZM140.07 4.79L138.65 8.10L141.39 8.10L140.07 4.79ZM153.04 3.64L152.65 3.64L152.66 3.08L155.88 3.08L155.88 3.08Q157.01 3.08 157.62 3.21L157.62 3.21L157.62 3.21Q158.26 3.37 158.72 3.75L158.72 3.75L158.72 3.75Q159.73 4.57 159.73 5.71L159.73 5.71L159.73 5.71Q159.73 6.43 159.26 7.04L159.26 7.04L159.26 7.04Q158.76 7.66 157.73 7.92L157.73 7.92L160.42 11.49L160.42 11.49Q160.73 11.87 161.02 11.87L161.02 11.87L161.62 11.87L161.65 12.41L159.62 12.41L156.63 8.10L156.45 8.10L156.45 8.10Q156.41 8.10 156.36 8.11L156.36 8.11L156.36 8.11Q156.30 8.11 156.29 8.11L156.29 8.11L156.29 8.11Q155.41 8.11 155.01 8.03L155.01 8.03L155.01 11.46L155.01 11.46Q155.01 11.76 155.16 11.81L155.16 11.81L155.16 11.81Q155.28 11.87 155.98 11.87L155.98 11.87L156.69 11.87L156.67 12.41L152.94 12.41L152.94 11.87L153.26 11.87L153.26 11.87Q153.73 11.87 153.79 11.81L153.79 11.81L153.79 11.81Q153.88 11.74 153.88 11.46L153.88 11.46L153.88 4.14L153.88 4.14Q153.88 3.82 153.69 3.73L153.69 3.73L153.69 3.73Q153.46 3.64 153.04 3.64L153.04 3.64ZM155.01 4.28L155.01 7.57L155.01 7.57Q155.20 7.70 155.91 7.71L155.91 7.71L155.91 7.71Q157.18 7.71 157.76 7.27L157.76 7.27L157.76 7.27Q158.35 6.84 158.35 5.92L158.35 5.92L158.35 5.92Q158.35 4.92 157.58 4.27L157.58 4.27L157.58 4.27Q156.82 3.64 155.44 3.64L155.44 3.64L155.44 3.64Q155.18 3.64 155.10 3.75L155.10 3.75L155.10 3.75Q155.02 3.84 155.01 4.28L155.01 4.28ZM169.42 12.41L169.40 11.87L169.57 11.87L169.57 11.87Q169.96 11.87 170.09 11.73L170.09 11.73L170.09 11.73Q170.21 11.57 170.55 10.83L170.55 10.83L171.46 8.82L172.03 7.53L172.03 7.53Q172.30 6.97 172.34 6.86L172.34 6.86L172.34 6.86Q172.41 6.70 172.46 6.60L172.46 6.60L172.46 6.60Q172.51 6.51 172.53 6.45L172.53 6.45L172.62 6.21L174.05 2.74L174.34 2.74L174.34 2.74Q175.20 4.98 177.39 10.25L177.39 10.25L177.39 10.25Q177.84 11.34 178.03 11.64L178.03 11.64L178.03 11.64Q178.17 11.87 178.60 11.87L178.60 11.87L178.81 11.87L178.80 12.41L175.61 12.41L175.62 11.87L176.04 11.87L176.04 11.87Q176.65 11.87 176.65 11.70L176.65 11.70L176.65 11.70Q176.65 11.63 176.52 11.27L176.52 11.27L175.48 8.72L172.23 8.72L171.12 11.18L171.12 11.18Q170.99 11.50 170.99 11.63L170.99 11.63L170.99 11.63Q170.99 11.79 171.08 11.83L171.08 11.83L171.08 11.83Q171.18 11.87 171.56 11.87L171.56 11.87L172.14 11.87L172.14 12.41L169.42 12.41ZM173.91 4.79L172.50 8.10L175.24 8.10L173.91 4.79ZM196.61 3.64L196.12 3.64L196.13 3.08L199.72 3.08L199.72 3.64L199.08 3.64L199.08 3.64Q198.71 3.64 198.59 3.72L198.59 3.72L198.59 3.72Q198.48 3.80 198.48 4.16L198.48 4.16L198.48 11.22L198.48 11.22Q198.48 11.57 198.57 11.67L198.57 11.67L198.57 11.67Q198.65 11.77 198.95 11.77L198.95 11.77L198.95 11.77Q201.82 11.74 202.47 11.63L202.47 11.63L202.47 11.63Q202.69 11.61 202.77 11.39L202.77 11.39L202.77 11.39Q202.85 11.17 203.05 10.05L203.05 10.05L203.54 10.08L203.08 12.41L196.31 12.41L196.30 11.87L196.69 11.87L196.69 11.87Q197.20 11.87 197.26 11.80L197.26 11.80L197.26 11.80Q197.35 11.72 197.35 11.33L197.35 11.33L197.35 4.09L197.35 4.09Q197.35 3.80 197.20 3.72L197.20 3.72L197.20 3.72Q197.05 3.64 196.61 3.64L196.61 3.64ZM211.29 3.64L211.27 3.08L218.48 3.08L218.48 3.08Q218.50 4.14 218.55 5.28L218.55 5.28L218.00 5.30L218.00 5.30Q217.99 4.66 217.94 4.25L217.94 4.25L217.94 4.25Q217.90 3.89 217.84 3.80L217.84 3.80L217.84 3.80Q217.79 3.71 217.67 3.69L217.67 3.69L217.67 3.69Q217.57 3.68 216.99 3.68L216.99 3.68L214.61 3.68L214.61 3.68Q214.06 3.68 213.92 3.77L213.92 3.77L213.92 3.77Q213.79 3.86 213.79 4.33L213.79 4.33L213.79 6.28L213.79 6.28Q213.79 6.69 213.85 6.76L213.85 6.76L213.85 6.76Q213.92 6.84 214.26 6.84L214.26 6.84L216.37 6.84L216.37 6.84Q216.73 6.84 216.82 6.73L216.82 6.73L216.82 6.73Q216.90 6.63 216.90 6.14L216.90 6.14L216.90 5.61L217.42 5.63L217.42 8.97L216.90 8.97L216.90 8.24L216.90 8.24Q216.90 7.66 216.83 7.57L216.83 7.57L216.83 7.57Q216.75 7.46 216.40 7.46L216.40 7.46L214.30 7.46L214.30 7.46Q213.96 7.46 213.88 7.54L213.88 7.54L213.88 7.54Q213.79 7.63 213.79 7.89L213.79 7.89L213.79 11.20L213.79 11.20Q213.79 11.57 213.88 11.67L213.88 11.67L213.88 11.67Q213.96 11.77 214.24 11.77L214.24 11.77L214.24 11.77Q217.16 11.75 217.68 11.69L217.68 11.69L217.68 11.69Q218.20 11.63 218.29 11.38L218.29 11.38L218.29 11.36L218.30 11.35L218.52 10.17L219.00 10.25L218.65 12.41L211.55 12.41L211.55 11.87L211.92 11.87L211.92 11.87Q212.48 11.87 212.56 11.80L212.56 11.80L212.56 11.80Q212.66 11.72 212.66 11.33L212.66 11.33L212.66 4.24L212.66 4.24Q212.66 3.82 212.51 3.73L212.51 3.73L212.51 3.73Q212.34 3.64 211.68 3.64L211.68 3.64L211.29 3.64ZM227.37 3.64L226.88 3.64L226.88 3.08L230.39 3.08L230.38 3.64L229.64 3.64L229.64 3.64Q229.30 3.64 229.30 3.82L229.30 3.82L229.30 3.82Q229.30 3.98 229.50 4.48L229.50 4.48L232.10 10.94L235.04 4.18L235.04 4.18Q235.11 3.97 235.12 3.92L235.12 3.92L235.12 3.92Q235.12 3.79 235.02 3.74L235.02 3.74L235.02 3.74Q234.92 3.68 234.77 3.65L234.77 3.65L234.77 3.65Q234.69 3.64 234.42 3.64L234.42 3.64L233.98 3.64L233.95 3.08L236.79 3.08L236.76 3.64L236.36 3.64L236.36 3.64Q236.04 3.64 235.88 3.83L235.88 3.83L235.88 3.83Q235.80 3.93 235.33 4.94L235.33 4.94L235.33 4.94Q235.12 5.46 235.05 5.57L235.05 5.57L231.92 12.63L231.68 12.63L228.44 4.73L228.44 4.73Q228.12 3.93 227.97 3.79L227.97 3.79L227.97 3.79Q227.81 3.63 227.37 3.64L227.37 3.64ZM244.54 3.64L244.53 3.08L251.74 3.08L251.74 3.08Q251.75 4.14 251.81 5.28L251.81 5.28L251.26 5.30L251.26 5.30Q251.25 4.66 251.19 4.25L251.19 4.25L251.19 4.25Q251.15 3.89 251.10 3.80L251.10 3.80L251.10 3.80Q251.04 3.71 250.93 3.69L250.93 3.69L250.93 3.69Q250.83 3.68 250.24 3.68L250.24 3.68L247.86 3.68L247.86 3.68Q247.32 3.68 247.17 3.77L247.17 3.77L247.17 3.77Q247.05 3.86 247.05 4.33L247.05 4.33L247.05 6.28L247.05 6.28Q247.05 6.69 247.11 6.76L247.11 6.76L247.11 6.76Q247.17 6.84 247.52 6.84L247.52 6.84L249.63 6.84L249.63 6.84Q249.99 6.84 250.07 6.73L250.07 6.73L250.07 6.73Q250.15 6.63 250.16 6.14L250.16 6.14L250.16 5.61L250.67 5.63L250.67 8.97L250.16 8.97L250.16 8.24L250.16 8.24Q250.16 7.66 250.09 7.57L250.09 7.57L250.09 7.57Q250.00 7.46 249.66 7.46L249.66 7.46L247.56 7.46L247.56 7.46Q247.22 7.46 247.14 7.54L247.14 7.54L247.14 7.54Q247.05 7.63 247.05 7.89L247.05 7.89L247.05 11.20L247.05 11.20Q247.05 11.57 247.14 11.67L247.14 11.67L247.14 11.67Q247.22 11.77 247.50 11.77L247.50 11.77L247.50 11.77Q250.41 11.75 250.94 11.69L250.94 11.69L250.94 11.69Q251.46 11.63 251.54 11.38L251.54 11.38L251.55 11.36L251.56 11.35L251.78 10.17L252.26 10.25L251.91 12.41L244.81 12.41L244.81 11.87L245.18 11.87L245.18 11.87Q245.74 11.87 245.82 11.80L245.82 11.80L245.82 11.80Q245.92 11.72 245.92 11.33L245.92 11.33L245.92 4.24L245.92 4.24Q245.92 3.82 245.77 3.73L245.77 3.73L245.77 3.73Q245.59 3.64 244.94 3.64L244.94 3.64L244.54 3.64ZM260.47 3.64L260.08 3.64L260.09 3.08L263.31 3.08L263.31 3.08Q264.45 3.08 265.05 3.21L265.05 3.21L265.05 3.21Q265.69 3.37 266.16 3.75L266.16 3.75L266.16 3.75Q267.16 4.57 267.16 5.71L267.16 5.71L267.16 5.71Q267.16 6.43 266.69 7.04L266.69 7.04L266.69 7.04Q266.20 7.66 265.17 7.92L265.17 7.92L267.85 11.49L267.85 11.49Q268.16 11.87 268.45 11.87L268.45 11.87L269.06 11.87L269.08 12.41L267.05 12.41L264.06 8.10L263.89 8.10L263.89 8.10Q263.85 8.10 263.79 8.11L263.79 8.11L263.79 8.11Q263.74 8.11 263.72 8.11L263.72 8.11L263.72 8.11Q262.84 8.11 262.45 8.03L262.45 8.03L262.45 11.46L262.45 11.46Q262.45 11.76 262.59 11.81L262.59 11.81L262.59 11.81Q262.71 11.87 263.42 11.87L263.42 11.87L264.13 11.87L264.10 12.41L260.37 12.41L260.37 11.87L260.70 11.87L260.70 11.87Q261.16 11.87 261.23 11.81L261.23 11.81L261.23 11.81Q261.31 11.74 261.31 11.46L261.31 11.46L261.31 4.14L261.31 4.14Q261.31 3.82 261.12 3.73L261.12 3.73L261.12 3.73Q260.89 3.64 260.47 3.64L260.47 3.64ZM262.45 4.28L262.45 7.57L262.45 7.57Q262.63 7.70 263.34 7.71L263.34 7.71L263.34 7.71Q264.61 7.71 265.19 7.27L265.19 7.27L265.19 7.27Q265.78 6.84 265.78 5.92L265.78 5.92L265.78 5.92Q265.78 4.92 265.01 4.27L265.01 4.27L265.01 4.27Q264.25 3.64 262.87 3.64L262.87 3.64L262.87 3.64Q262.62 3.64 262.53 3.75L262.53 3.75L262.53 3.75Q262.45 3.84 262.45 4.28L262.45 4.28ZM277.33 11.84L277.33 11.84L277.33 11.84Q277.33 11.68 277.61 11.45L277.61 11.45L277.61 11.45Q277.89 11.21 278.00 11.21L278.00 11.21L278.00 11.21Q278.20 11.21 278.43 11.49L278.43 11.49L278.43 11.49Q278.66 11.76 278.66 11.91L278.66 11.91L278.66 11.91Q278.66 12.09 278.39 12.32L278.39 12.32L278.39 12.32Q278.11 12.56 277.96 12.55L277.96 12.55L277.96 12.55Q277.83 12.55 277.58 12.29L277.58 12.29L277.58 12.29Q277.33 12.02 277.33 11.84ZM287.44 11.84L287.44 11.84L287.44 11.84Q287.44 11.68 287.72 11.45L287.72 11.45L287.72 11.45Q288.00 11.21 288.11 11.21L288.11 11.21L288.11 11.21Q288.31 11.21 288.55 11.49L288.55 11.49L288.55 11.49Q288.78 11.76 288.78 11.91L288.78 11.91L288.78 11.91Q288.78 12.09 288.51 12.32L288.51 12.32L288.51 12.32Q288.23 12.56 288.07 12.55L288.07 12.55L288.07 12.55Q287.95 12.55 287.70 12.29L287.70 12.29L287.70 12.29Q287.44 12.02 287.44 11.84ZM297.56 11.84L297.56 11.84L297.56 11.84Q297.56 11.68 297.84 11.45L297.84 11.45L297.84 11.45Q298.12 11.21 298.23 11.21L298.23 11.21L298.23 11.21Q298.43 11.21 298.67 11.49L298.67 11.49L298.67 11.49Q298.89 11.76 298.89 11.91L298.89 11.91L298.89 11.91Q298.89 12.09 298.63 12.32L298.63 12.32L298.63 12.32Q298.35 12.56 298.19 12.55L298.19 12.55L298.19 12.55Q298.07 12.55 297.81 12.29L297.81 12.29L297.81 12.29Q297.56 12.02 297.56 11.84Z"></path></g></svg>